<svg xmlns="http://www.w3.org/2000/svg" width="1000" height="1000" viewBox="0 0 1000 1000"><style>.a{fill:#FFF;}</style><path d="M251.3 320.2C254.1 324.1 262.8 359.1 254.5 361.2c-6.5 1.6-9.8 2.8-14.8 8 -5 5.2-17 16.5-17.7 30.7 -0.7 14.2 1 16.6-0.3 24.6 -1.3 8-28.7 34.5-46.7 68.2s-28.7 65-25 115 35.3 113 104.7 165.7C324.1 826.1 334 816 343.3 820.7s10 5.3 16.7 10S447.3 920 564 930s250-18.7 306-138.7 32-288.7-16-322c-14 39.3-66.7 155.3-105.3 192.7 -38.6 37.4-74 88.7-171.3 71.3 -4.7-15.8-13.1-10.2-6.8-14.7 1.6-1.1 3-5 2.6-6.3 -0.4-1.5-4.8 0.5-5.1-0.4 -1.4-3.5 1.7-8.3-0.7-7.2 -3.7 1.6-30.7 20-42 7.3 -11.3-12.7-16-38.7-37.3-50 -21.3-11.3-53.3 2-62-6 -8-16.7-22.7-59.3-39.3-72 4-19.3-4.7-9.3 6-36 7.3-0.7 9.3-3.3 12.7 0.7 2 19.3 4 33.3 14 37.3s20 14.7 49.3 15.3c29.3 0.6 38.7 5.3 47.3 2.7 8.6-2.6 11.3-8 13.3-7.3s2 0.7 2 0.7 2 0.7 8 2c2.3 0.3 3.4-2.7 3.4-2.7l0.5-6.9c0 0 0.8-1.2 2.8-5.9s-9.3-4.3-9.3-4.3 2.7 0.3 2-4.4 -12 3.3-12 3.3S518 578 505.5 575.5c-9.5-4.5-6.7-4.3-13.4-12.9 -6.7-8.6-2.7 2-11.3-10 -0.7-14.7 2.7-15.3 0.7-30 -2-14.7-16-26.7-20-32 35.3 2.7 32.1 4.7 41.3 3.1 23-3.9 29.3-7.1 46.7-13.1l51.3-20.6c2.5-3.2 3.4-9.5 7-17l19.4-38.3c1.8-5.2 0.8-9.9 2.2-15.2l-9.7-81.1C612.9 304.1 606 245.3 510.6 194 484.4 179.9 454 160 380.4 166.7c-32 2.9-39.9 8.5-38.6-2.5 1.3-11-1.1-12.1-4-10.3 -2.9 1.8-2.1-1.2-6-3.9 -3.9-2.7 0.8-14.9-0.2-17.5s-4.1-6.6-8.7-3.3c-4.6 3.3-7.2 7.2-8.9 6.3s-2-4.4-2-4.4 4-13.5 0-14.5 -10.5 4-17 5 4-16 0-18 -13 5-16.5 0 6-11 3-15 -7 4.5-12 0 1-13.5-3.5-15 -8 0.5-12.5 0S239.5 60.4 237 58c-2.8-2.7-9.3-2.7-10.3-1.5s3 10 2.3 13.5 -3.7 3.7-2.5 6.7 6.3-0.2 8.2 1.8c1.9 2-1.8 8-0.3 11.5s-1.8-2.7 1.5 3.5c3.3 6.2 8 3.3 11 9.2 3 5.9-4.4 10.6-2.7 14.3 1.7 3.7 8-0.7 10 3.5s-3.2 12 0 16.3c3.2 4.3 11.7-2.5 14 3 2.3 5.5-9.5 12.8-7.8 16.5 1.7 3.7 12.2-1.2 14 4 1.8 5.2-8.5 9.5-5.8 15.2 2.7 5.7 5.8 7.2 8.3 8s14.7-2.5 15 6.7c0.3 9.2-26.6-39.4-22.1 7.8L249 263.5c-1.3 3.8-5 27.8-3.2 33.1L251.3 320.2z" style="stroke-width:20;stroke:#FFF"/><path d="M266 178.8C274.1 194 237 154 225.5 120c-5.1-15.2-25.2-43.3-24.4-59.5 0.8-17.7 41.4-25.3 57-13.6C272.7 57.9 289.5 73.8 303 86c12.5 11.4 28 21.4 39.5 33.8 11.7 12.6 27.7 27.8 38.5 41.2 7.1 8.8-4.8 14.2-16.1 19 -7.7 3.3-17 4.4-25.2 6.8C324 191.4 304 203 288 203c-18.7 0-24.5-19.5-29.9-17.5 -49.3 2.2-89.6-4.3-122.8 8.7 -11.1 5.7-26.6 16-22.5 29.7 3.1 10.2 40.8 20.8 51 24.7 14.1 5.4 25.8 8.2 40.2 11.6 12.4 2.9 8.8-0.3 19.1 5.6C220.5 270.2 213.1 267 198 272.7c-12.9 4.8-25.9 8.6-38.8 13.5 -20.5 7.9-53 23.2-53 48 -1.6 12.4 58 16 89 9.8 32.3 0 49.5-4.3 52.6 0.2 3.2 2 9.6 1.7 9.9 1.7" class="a"/><path d="M306 231c-8-16.1-20.5-30.4-30-45 -8.8-13.5-16.1-29.4-22.7-44 -10.6-23.6-31.8-75.8-27.1-79.6 14.8-5.4 23.7 1.4 35 12.3 11.5 11.1 23.6 19.1 35.8 29.3 25 20.9 45.8 45.2 68.6 68 -4.8 3-9.9 5.7-15.6 6" class="a"/><path d="M266 197c-6.6 3.7-24.6-0.5-33-1 -11.4-0.6-23.6-0.6-35 0 -20.6 1-48.2-0.2-62.7 18.2 15 14.2 40.4 18 59.4 22.5 10.3 2.5 20.2 3.9 30.2 8 8 3.3 16.4 9.2 25 10.2" class="a"/><path d="M253 274c-19.9 0-40.8 0.3-59.1 7.2 -14.8 5.6-29.5 13.5-43.6 21 -9 4.8-37.4 17-23.2 27.7 11.4 8.6 38.9 1.7 52-0.2 12.9-1.9 26.1-3.5 39-5.6 12.7-2.1 27.1-7.4 40-6.2" class="a"/><path d="M578.6 295c14.2 5.6 33.4 4.5 49 6 16.4 1.6 31 6.5 47 10 16.1 3.6 32.7 6.9 48.1 13 11.6 4.6 30 6.4 43.8 13.5 13.3 7.6 19.7 11.3 20.5 12.5 1.7 8.7 6.4 16.9-0.6 22.5 -5.1 4.1-26 10.3-31.9 12 -16.6 4.9-24.8 1.1-44.5 5 -11.4 2.2-21.4 0.5-33 2.2 -12.2 1.7-19.5 0-21 13.3 21.8 16.6 68 51.9 80.5 78 7.1 14.7-6.3 26.6-24.5 23.7 -15.6-2.5-59-30.8-74.3-35.5 -7.7-2.3-6.2-1.9-7.7-2.3 -0.4-0.1-5.2-4.3-3.5 7.1 1.7 11.8 4.4 9.6 10.2 20.5 7.4 13.9 35 113.5 0 115.3 -29.2 1.4-60.3-52.7-76.2-72.6 -9.5-11.8-17.6-23-27.5-34.2 -8.5-9.8-18.9-6.1-30.2-11.3" class="a"/><path d="M251.3 320.2C254.1 324.1 262.8 359.1 254.5 361.2c-6.5 1.6-9.8 2.8-14.8 8 -5 5.2-17 16.5-17.7 30.7 -0.7 14.2 1 16.6-0.3 24.6 -1.3 8-28.7 34.5-46.7 68.2s-28.7 65-25 115 35.3 113 104.7 165.7C324.1 826.1 334 816 343.3 820.7s10 5.3 16.7 10S447.3 920 564 930s250-18.7 306-138.7 32-288.7-16-322c-14 39.3-66.7 155.3-105.3 192.7 -38.6 37.4-74 88.7-171.3 71.3 -4.7-15.8-13.1-10.2-6.8-14.7 1.6-1.1 3-5 2.6-6.3 -0.4-1.5-4.8 0.5-5.1-0.4 -1.4-3.5 1.7-8.3-0.7-7.2 -3.7 1.6-30.7 20-42 7.3 -11.3-12.7-16-38.7-37.3-50 -21.3-11.3-53.3 2-62-6 -8-16.7-22.7-59.3-39.3-72 4-19.3-4.7-9.3 6-36 7.3-0.7 9.3-3.3 12.7 0.7 2 19.3 4 33.3 14 37.3s20 14.7 49.3 15.3c29.3 0.6 38.7 5.3 47.3 2.7 8.6-2.6 11.3-8 13.3-7.3s2 0.7 2 0.7 2 0.7 8 2c6 1.3 6.7-4.7 6.7-4.7l-11.3-2.7c0 0 9.3-3.3 11.3-8s-13.3 2-13.3 2 6.7-6 6-10.7 -12 3.3-12 3.3 -22.2-7.3-16.1-4.7c6.1 2.6-11.9-2.7-18.6-11.3 -6.7-8.6-2.7 2-11.3-10 -0.7-14.7 2.7-15.3 0.7-30 -2-14.7-16-26.7-20-32 35.3 2.7 32.1 4.7 41.3 3.1 23-3.9 29.3-7.1 46.7-13.1l51.3-20.6c-3.8-3.3-1.7-11.7 2-13.3l24.4-42c-1.2-5.1-3.2-11.3 2.2-15.2l-9.7-81.1C612.9 304.1 606 245.3 510.6 194 484.4 179.9 454 160 380.4 166.7c-32 2.9-28.3-6.7-27-17.7 1.3-11-3.4-9.6-6.3-7.8 -2.9 1.8-11.4 11.4-15.3 8.7 -3.9-2.7 0.8-14.9-0.2-17.5s-4.1-6.6-8.7-3.3c-4.6 3.3-7.2 7.2-8.9 6.3s-2-4.4-2-4.4 4-13.5 0-14.5 -10.5 4-17 5 4-16 0-18 -13 5-16.5 0 6-11 3-15 -7 4.5-12 0 1-13.5-3.5-15 -8 0.5-12.5 0S239.5 60.4 237 58c-2.8-2.7-9.3-2.7-10.3-1.5s3 10 2.3 13.5 -3.7 3.7-2.5 6.7 6.3-0.2 8.2 1.8c1.9 2-1.8 8-0.3 11.5s-1.8-2.7 1.5 3.5c3.3 6.2 8 3.3 11 9.2 3 5.9-4.4 10.6-2.7 14.3 1.7 3.7 8-0.7 10 3.5s-3.2 12 0 16.3c3.2 4.3 11.7-2.5 14 3 2.3 5.5-9.5 12.8-7.8 16.5 1.7 3.7 12.2-1.2 14 4 1.8 5.2-8.5 9.5-5.8 15.2 2.7 5.7 5.8 7.2 8.3 8s14.7-2.5 15 6.7c0.3 9.2-6.7 11.5-17 11.8L249 263.5c-1.3 3.8 1.1 33.9-3.2 33.1"/><path d="M741.5 702c-78 73-189 71-254.5 17 -9.9-3.8-21.3-12.2-27.5-13 -6.6-0.9-7.8 6.3-14 13 -12 13-14 25-14 25 12 11.5 117.5 98.5 235.5 55.5s180-164 192.6-291C862.6 489.5 819.5 629 741.5 702z"/><path d="M741.5 702c-78 73-189 71-254.5 17 -9.9-3.8-21.3-12.2-27.5-13 -6.6-0.9-7.8 6.3-14 13 -12 13-14 25-14 25 12 11.5 117.5 98.5 235.5 55.5s180-164 192.6-291C862.6 489.5 819.5 629 741.5 702z" style="fill:#FFF;stroke-width:6;stroke:#FFF"/><path d="M578 729c0 0-13-0.5-21 0s-7.5 10.5-21 9.5 -5.5 0-28.5 8.5S471 720.5 471 720.5c-5.1-5.6 5.3-19.6-15.5-16.5"/><path d="M577.9 732c-5.2-0.2-10.4-0.3-15.5-0.2 -1.3 0-2.6 0-3.8 0.1H557.7h-0.2 -0.1H557.3c0 0-0.1 0 0.1 0l0 0 -0.5 0.1c-0.1 0-0.2 0-0.2 0H556.6c-0.1 0-0.1 0-0.2 0 -0.2 0.1-0.4 0.1-0.6 0.2 -0.8 0.3-1.5 0.8-2.3 1.5s-1.7 1.7-2.7 2.7 -2.3 2-3.7 2.8c-1.4 0.8-2.9 1.4-4.5 1.7 -1.5 0.4-3.1 0.5-4.5 0.5 -0.7 0-1.5 0-2.2-0.1l-2-0.1c-1.3-0.1-2.5-0.2-3.7-0.2h-0.8l-0.7 0.1c-0.2 0-0.4 0.1-0.6 0.1l-0.6 0.2c-0.9 0.3-2.1 1-3.2 1.6 -1.2 0.6-2.4 1.2-3.6 1.8 -2.4 1.1-4.9 2.2-7.4 3.1 -1.2 0.5-2.5 0.9-3.7 1.4l-1 0.4L507.7 750c-0.7 0.2-1.5 0.4-2.2 0.6 -2.9 0.7-6 0.7-9 0.2 -3-0.6-5.8-1.7-8.2-3.3 -2.5-1.5-4.7-3.4-6.6-5.4 -2-2-3.7-4.1-5.3-6.4 -1.6-2.2-3-4.6-4.3-6.9 -1.3-2.4-2.5-4.8-3.6-7.4l0.6 0.9 0 0c-0.7-0.6-1.3-1.4-1.7-2.2 -0.4-0.8-0.7-1.6-0.9-2.4 -0.2-0.8-0.3-1.5-0.4-2.2 -0.1-0.7-0.1-1.3-0.1-1.9 -0.1-1.2 0-2.3-0.1-3.3 0-0.9-0.2-1.7-0.3-2.1 -0.1-0.2-0.1-0.4-0.2-0.5 -0.1-0.2-0.3-0.4-0.5-0.5 -0.5-0.4-1.3-0.8-2.3-1.1 -1-0.3-2-0.6-3.2-0.8 -0.6-0.1-1.1-0.2-1.7-0.3 -0.6-0.2-1.2-0.4-1.9-1v-0.3c1-1.5 2.2-1.7 3.4-2.1 1.2-0.4 2.5-0.7 3.9-0.8 1.4-0.1 2.9 0 4.5 0.6 0.8 0.3 1.7 0.8 2.4 1.4 0.8 0.6 1.4 1.4 1.9 2.3 0.5 0.8 0.8 1.7 1 2.5 0.2 0.8 0.3 1.6 0.4 2.3 0.1 1.4 0.1 2.7 0 3.8 0 1.1-0.1 2.1 0 2.9 0 0.8 0.1 1.3 0.3 1.8l0 0 0.4 0.6 0.2 0.4c0.9 2.2 2 4.5 3.2 6.7 1.2 2.2 2.5 4.3 4 6.3 2.9 4 6.3 7.7 10.2 10.1 2 1.2 4.1 2.1 6.2 2.5 2.2 0.4 4.4 0.4 6.6-0.1 0.6-0.1 1-0.3 1.6-0.4l0.9-0.3 0.8-0.3c1.2-0.5 2.4-0.9 3.6-1.4 2.4-1 4.7-1.9 7-3 1.2-0.5 2.3-1.1 3.4-1.7 1.2-0.6 2.3-1.2 3.8-1.8 0.4-0.1 0.8-0.3 1.2-0.4 0.4-0.1 0.9-0.2 1.3-0.3l1.2-0.1h1.1c1.5 0 2.8 0.1 4.1 0.2l2 0.1c0.6 0 1.2 0.1 1.7 0.1 1.1 0 2.2-0.1 3.2-0.3 2-0.5 3.7-1.4 5.3-3 0.9-0.8 1.7-1.8 2.8-2.8 1.1-1 2.5-2.1 4.2-2.7 0.4-0.2 0.9-0.3 1.3-0.4 0.2-0.1 0.5-0.1 0.7-0.1l0.4-0.1h0.3 0.5 0.6 1c1.3-0.1 2.7-0.1 4-0.1 5.3-0.1 10.5 0 15.8 0.2L577.9 732z" class="a"/><path d="M366.8 489.6l-2.8 4.7 8.3 6.2 0.4 0.3 0.3 0.4 6.5 9 -0.6 3.3 -2.2 1.4 -14.9-1.9 -1 1.4L363.1 529.5l0 0 -0.8 2.9L359.5 532.8c-2.8-0.6-5.4-1.4-8-2.5 -2.6-1-5.1-2.2-7.6-3.8 -0.6-0.4-1.2-0.8-1.8-1.3 -0.6-0.5-1.2-0.9-1.7-1.4 -0.5-0.6-1.1-1-1.6-1.7L338 521.2l-0.2-0.2 -0.1-0.2 -0.3-0.4 -7.2 0.2c-0.6 0.8-1.3 1.8-2 2.9s-1.5 2.3-2.4 3.4c-1.8 2.3-4.2 4.3-6.8 5.6 -0.6 0.4-1.3 0.6-1.9 0.9 -0.6 0.3-1.3 0.6-2 0.8l-2 0.7 -2 0.6c-2.7 0.7-5.3 1.2-8 1.6l-1 0.2 -1 0.1 -2 0.2c-1.3 0.2-2.7 0.2-4.1 0.2 -1.4 0.1-2.7 0-4.1 0s-2.7-0.2-4.1-0.4l-1-0.1 -1-0.2 -2-0.4c-1.3-0.3-2.6-0.7-4-1.1 -2.6-0.9-5.1-1.9-7.5-3.3 -2.4-1.3-4.6-2.9-6.6-4.7 -2-1.8-3.9-3.7-5.5-5.8 -1.7-2.1-3.1-4.3-4.5-6.6 1.7 2 3.4 4.1 5.3 5.8 1.8 1.9 3.9 3.5 5.9 5l1.6 1.1 0.8 0.5 0.8 0.5 1.7 1c0.6 0.3 1.2 0.6 1.7 0.8 1.1 0.6 2.3 1 3.5 1.5s2.4 0.8 3.6 1.2c1.2 0.3 2.5 0.6 3.7 0.8l1.9 0.3 0.9 0.1 1 0.1c1.3 0.1 2.5 0.2 3.8 0.2 1.3 0 2.6 0 3.8-0.1 1.3-0.1 2.5-0.1 3.8-0.4l2-0.3 0.9-0.1 0.9-0.2c2.5-0.5 5-1 7.4-1.8l1.8-0.6 1.7-0.7c0.6-0.2 1.1-0.5 1.7-0.8 0.5-0.3 1.1-0.5 1.6-0.9 2.1-1.2 3.8-2.7 5.2-4.6 0.7-0.9 1.4-2 2.1-3.1s1.4-2.3 2.5-3.6l0.7-0.7 0.4-0.5 5.7-1.3 9 2.5 0.3 0.4 0.2 0.2 0.1 0.1 0.5 0.6c0.3 0.4 0.8 0.8 1.2 1.2 0.4 0.4 0.9 0.7 1.3 1.1 0.5 0.3 1 0.7 1.5 1 2 1.3 4.3 2.3 6.6 3.1 2.3 0.9 2.3 0.9 3 0.2l0.6-1.7 -0.4-1.5 -1.6-11.8 -0.3-2.3 2.5-1.3 11.2 1.4 0.6-1.9 0 0L368.9 505l-11-8.2 -1-1.9 0.5-2.4 3.2-2.9 -0.3-1.6 -1.1-0.1L358.7 487.9 358.1 488.1 357.9 488.2H357.8c-0.1 0 0.3-0.1 0.1-0.1l0 0 -0.2 0.1c-0.3 0.2-0.6 0.3-1 0.5 -1.4 0.8-5.6 4.3-9.6 2.4l-26.7-11.6c-0.9-1.4-7.7-7.1-8.7-8.3 -0.2-0.3-0.5-0.6-0.7-0.8l-0.4-0.4c-0.1-0.1-0.3-0.3-0.5-0.5l-1-0.9 -0.8-0.6c-2.3-1.9-4.8-2.6-8-2.7 -1.6-0.1-3.4 0.1-5.5 0H294l-0.9-0.1c-0.6-0.1-1.2-0.2-1.8-0.4l-0.5-0.1 -0.6-0.2c-0.4-0.2-0.7-0.3-1.1-0.5 -0.2-0.1-0.3-0.1-0.4-0.2l-0.3-0.2 -0.3-0.2L288 463.3h-0.1c0.2 0.1-0.3-0.2-0.3-0.2l0 0c-1.9-1.5-3.3-3.6-4.1-5.8s-1-4.3-1.2-6.2c-0.2-3.9 0.1-7.6 0-11 0-1.7-0.2-3.4-0.3-5.4 0-0.5 0-1.1 0-1.6l0.3-1.7c0.1-0.6 0.3-1.1 0.5-1.6 0.2-0.5 0.3-1.1 0.6-1.5l0.7-1.4 0.4-0.7 0.4-0.6 1.5-2.3c0.7-0.9 1.1-2.5 1.2-4.1 0.2-3.3-0.2-6.8-0.9-10.3 -0.7-3.5-1.6-7-2.6-10.5 -1.3-3-2.4-6.5-3.6-9.9 1.8 3.2 3.4 6.5 4.9 9.8 1.5 3.4 2.8 6.8 3.9 10.3 1.1 3.6 2 7.2 2.1 11.2 0 2-0.2 4.2-1.4 6.4l-1.3 2.3 -0.3 0.6 -0.2 0.5 -0.5 1.1c-0.2 0.4-0.2 0.7-0.3 1s-0.2 0.7-0.2 1 0 0.7-0.1 1l0.1 1.1c0.1 1.6 0.5 3.5 0.6 5.4 0.2 2 0.2 3.8 0.2 5.6s0.1 3.6 0.3 5.2c0.2 1.6 0.5 3.2 1 4.4 0.5 1.2 1.2 2.2 2.2 2.9l0 0c0.1 0-0.4-0.3-0.2-0.2h0.1l0.1 0.1 0.3 0.2 0.3 0.2c0.1 0.1 0.2 0.1 0.2 0.1 0.1 0 0.1 0 0.2 0h0.1 0.2c0.3 0.1 0.5 0.1 0.9 0.1l0.5 0.1h0.6c1.5 0 3.4-0.2 5.4-0.2s4.2 0.2 6.4 0.8c0.5 0.2 1.1 0.3 1.6 0.6l1.5 0.7c1 0.6 2 1.1 2.8 1.8l0.6 0.5 0.3 0.3 0.2 0.1 0 0 0.1 0.1 0.1 0.1 1 0.9c0.2 0.2 0.3 0.3 0.5 0.5l0.6 0.6c0.4 0.4 0.8 0.8 1.1 1.2 1.3 1.5 2.5 3.2 3.5 4.9l27.9 14.2c1.5-0.9 3.1-1.9 4.9-2.9 0.4-0.2 1-0.5 1.5-0.7l0.4-0.2 0 0 0.2-0.1h0.1l0.2-0.1 4.1-0.7 4.4 2.5" class="a"/><path d="M233.5 669c2.8-3.1 6-5.9 9.3-8.5 3.3-2.6 6.9-4.9 10.6-7 3.7-2 7.6-3.8 11.8-5.2 4.1-1.4 8.4-2.3 12.8-2.8 4.4-0.4 9-0.2 13.4 1 1.1 0.2 2.2 0.7 3.3 1 1.1 0.4 2.1 0.9 3.2 1.4l2.8 1.5c0.9 0.5 1.8 0.9 2.8 1.5 1.8 1.1 3.8 2.2 5.5 3.4l2.7 1.8 2.6 1.9c3.5 2.5 6.8 5.2 10 7.9 3.2 2.7 6.3 5.6 9.4 8.4 3 2.8 6.1 5.6 9.1 8 0.8 0.6 1.6 1.1 2.3 1.7 0.8 0.5 1.6 1 2.4 1.5l1.2 0.6 0.6 0.3 0.1 0.1h0.1l0 0c-0.1 0 0.2 0.1-0.1 0l0.4 0.1 0.7 0.3c0.2 0.1 0.4 0.1 0.5 0.1l0.5 0.1 0.6 0.1c3.4 0.7 7.4 0.5 11.3 0.2 4-0.4 8.1-1 12.2-1.5 4.1-0.5 8.3-1.1 12.7-1.2 2.2-0.1 4.4-0.1 6.7 0.2 2.3 0.2 4.6 0.7 7 1.6l0.9 0.4 0.7 0.4 1.4 0.7c1 0.5 1.9 1 2.9 1.6 0.5 0.3 1 0.6 1.5 1 0.5 0.4 1 0.7 1.8 1.6 0.1 0.1 0.2 0.2 0.3 0.4 0.1 0.2 0.2 0.4 0.3 0.5 0.1 0.3 0.2 0.5 0.3 0.9 0.1 0.5 0.1 0.9 0 1.5 -0.1 0.6-0.4 1.1-0.7 1.5 -0.3 0.3-0.6 0.6-0.8 0.7 -0.1 0.1-0.3 0.2-0.4 0.2l-0.3 0.1c-0.2 0.1-0.3 0.1-0.5 0.2 -1.2 0.3-1.7 0.2-2.6 0.2l0 0 2.3-0.9 -6 6 0 0 -1.1-4.9 16.2 8.3 0 0 1 0.1 -0.9 0.9 -7.7 7.6 0 0 1.2-3.8 4 8.5 0.9 1.9 -1.5 1.5 0 0c-0.5 0.1-0.9 0.1-1.3 0.2 -0.4 0.1-0.7 0.1-1.1 0.2 -0.7 0.1-1.3 0.3-1.8 0.5 -1.1 0.4-2.1 1-3.3 1.3 -2.3 0.7-5 0.5-7.2-0.6 -0.6-0.2-1.1-0.6-1.6-0.9 -0.6-0.3-1-0.7-1.4-1.1l-1.2-1.1 -0.6-0.5c-0.2-0.2-0.4-0.2-0.6-0.4l-0.5-0.3c-0.2-0.1-0.4-0.2-0.6-0.3 -0.2-0.1-0.4-0.2-0.6-0.2L392.8 721.3c-0.8-0.1-1.4-0.1-2.1 0.2s-1.4 0.6-2.1 1.1c-0.8 0.5-1.5 1.2-2.5 1.8l-0.7 0.5c-0.3 0.2-0.6 0.4-0.8 0.5 -0.3 0.2-0.7 0.4-1 0.5 -0.4 0.2-0.6 0.2-0.8 0.4 -1 0.4-2.2 0.9-3.3 1.2 -2.3 0.7-4.7 1.1-7.1 1.3 -2.4 0.2-4.9 0.1-7.2-0.3 -0.6-0.1-1.2-0.2-1.8-0.3 -0.6-0.1-1.2-0.2-1.7-0.4l-1.7-0.5 -1.7-0.6c-2.3-0.8-4.2-1.7-6.2-2.6 -0.5-0.2-1-0.5-1.5-0.7L349.2 722.8c-1-0.4-1.9-0.8-2.9-1l-1.5-0.5c-0.5-0.1-1-0.2-1.5-0.4 -1-0.3-2-0.4-3-0.6l-6.5-1 -3.3-0.6 -0.8-0.2 -0.5-0.1 -0.4-0.1 -1.6-0.4 -1.7-0.5c-0.6-0.2-1.1-0.4-1.7-0.6 -1.1-0.5-2.3-1-3.3-1.9 -1.1-0.8-2-2.3-2.3-3.5 -0.2-0.6-0.3-1.2-0.5-1.6 -0.2-0.4-0.4-0.6-0.5-0.7l0 0 1.2 0.7c-0.2 0-0.7-0.1-1-0.1 -0.4 0-0.8 0-1.1 0 -0.8 0-1.5 0.1-2.3 0.3 -0.7 0.2-1.5 0.4-2.2 0.8 -0.4 0.1-0.7 0.4-1 0.6 -0.3 0.2-0.6 0.4-0.9 0.7 -0.3 0.2-0.6 0.5-0.9 0.8 -0.3 0.3-0.6 0.5-0.8 0.9l-0.7 1c-0.2 0.3-0.4 0.7-0.6 1 -0.5 0.7-0.7 1.5-1.1 2.2 -0.3 0.8-0.6 1.6-0.9 2.5 -0.6 1.7-1.2 3.3-1.8 5l-0.5 1.2 -0.6 1.2c-0.4 0.8-0.9 1.6-1.5 2.3l-0.5 0.5 -0.5 0.5c-0.3 0.3-0.7 0.6-1.1 0.8 -0.8 0.5-1.6 0.9-2.4 1.3 -0.8 0.3-1.7 0.7-2.5 0.9 -0.8 0.3-1.7 0.5-2.5 0.8 0.8-0.3 1.7-0.6 2.5-1 0.8-0.3 1.6-0.7 2.4-1.1 0.8-0.4 1.5-0.9 2.2-1.4 0.3-0.3 0.7-0.5 0.9-0.9l0.4-0.5 0.4-0.5c0.5-0.7 0.8-1.5 1.2-2.2l0.4-1.2 0.4-1.2c0.5-1.7 0.9-3.4 1.4-5.1 0.2-0.9 0.4-1.7 0.7-2.6 0.3-0.9 0.5-1.8 1-2.6 0.2-0.4 0.4-0.9 0.6-1.3l0.8-1.2c0.3-0.4 0.6-0.8 0.9-1.2 0.3-0.4 0.6-0.7 1-1.1 0.4-0.3 0.7-0.7 1.1-1 0.4-0.3 0.8-0.6 1.2-0.8 0.9-0.5 1.8-0.9 2.7-1.3 0.9-0.3 1.9-0.5 2.9-0.7 0.5-0.1 1-0.1 1.5-0.1s1 0 1.6 0l0.7 0.1 0.5 0.6 0 0c0.5 0.8 0.7 1.5 0.9 2.2 0.1 0.6 0.2 1.2 0.3 1.6 0.2 0.9 0.6 1.3 1.3 1.8 1.3 0.9 3.4 1.5 5.3 1.9l1.6 0.2 0.4 0.1h0.4l0.8 0.1 3.2 0.3 6.5 0.5c1.1 0.1 2.3 0.2 3.4 0.4 0.6 0.1 1.2 0.2 1.7 0.3l1.7 0.4c1.1 0.2 2.2 0.6 3.3 0.9l1.7 0.5c0.5 0.2 1 0.4 1.6 0.5 2.1 0.7 4.1 1.6 6 2.1 1.9 0.6 3.9 1 5.8 1.3 1.9 0.2 3.9 0.3 5.8 0.2 1.9-0.1 3.8-0.5 5.7-1 1-0.2 1.9-0.5 2.9-0.9 0.2-0.1 0.6-0.2 0.7-0.2 0.2-0.1 0.3-0.1 0.5-0.2l0.6-0.3 0.6-0.3c0.9-0.5 1.9-1.1 3.1-1.6 1.1-0.5 2.5-1 3.9-1.2 1.5-0.2 3 0.1 4.3 0.6l1 0.5c0.3 0.2 0.6 0.4 0.8 0.6 0.3 0.2 0.5 0.4 0.8 0.6l0.7 0.7c0.2 0.2 0.5 0.5 0.7 0.7l0.5 0.6 1 1.3c0.6 0.8 1.3 1.4 2.1 1.9 1.6 1 3.5 1.4 5.4 0.9 0.9-0.2 1.9-0.6 2.7-1.3 0.4-0.4 0.7-0.8 0.9-1.3 0.1-0.3 0.2-0.5 0.2-0.8 0-0.3 0.1-0.7-0.1-0.9l0 0 -0.6 3.4 -4-8.5 -1.1-2.4 2.3-1.4 0 0 10.3-3.4 0.1 1 0 0 -17.8-3.7 -4.2-0.9 3.1-4.1 0 0 6-6 2.3-0.9 0 0c0.2 0 0.7-0.1 0.5 0 -0.1 0 0 0-0.1 0 0 0-0.1 0-0.1 0.1 0 0-0.1 0.1-0.2 0.1 -0.1 0.1-0.4 0.3-0.6 0.5 -0.3 0.3-0.4 0.7-0.6 1.1 -0.1 0.5-0.1 0.8 0 1.1 0.1 0.3 0.1 0.4 0.2 0.6 0 0.1 0.1 0.1 0.1 0.2 0 0.1 0 0 0 0.1 0.1 0.1-0.3-0.2-0.6-0.4 -0.3-0.2-0.7-0.4-1.1-0.7 -0.8-0.4-1.7-0.9-2.6-1.3L401 694.3l-0.7-0.3 -0.6-0.2c-3.1-1.2-7-1.2-10.9-1 -3.9 0.2-8 0.8-12 1.4 -4.1 0.6-8.2 1.2-12.5 1.7 -4.3 0.4-8.7 0.7-13.5-0.2 -1-0.2-2.8-0.7-3.6-1l-0.4-0.1c-0.3-0.1-0.1-0.1-0.2-0.1l0 0h-0.1l-0.2-0.1 -0.8-0.4c-0.5-0.3-1.1-0.5-1.6-0.8 -1-0.6-2-1.2-2.9-1.9s-1.8-1.3-2.7-2c-3.4-2.7-6.5-5.6-9.6-8.4 -3.1-2.8-6-5.6-9.1-8.3 -3.1-2.7-6.2-5.3-9.4-7.7l-2.4-1.8 -2.5-1.7c-1.7-1.2-3.4-2.1-5-3.2 -0.8-0.5-1.8-1-2.7-1.5l-2.6-1.5c-0.8-0.4-1.6-0.8-2.5-1.2 -0.9-0.3-1.7-0.7-2.6-0.9 -3.6-1-7.4-1.3-11.2-1.1 -3.9 0.3-7.7 1.1-11.5 2.2 -3.8 1.1-7.6 2.5-11.3 4.1C248.1 661.2 240.8 664.9 233.5 669z" class="a"/><path d="M862.5 503c0 0 0.3 0.8 0.8 2.2 0.5 1.5 1.3 3.7 2.2 6.5 1.9 5.7 4.5 14.1 7.6 24.9 3 10.8 6.5 24 9.5 39.4 0.2 1 0.4 1.9 0.6 2.9s0.3 2 0.5 3c0.3 2 0.7 4 1 6.1s0.5 4.2 0.8 6.3c0.1 1.1 0.3 2.1 0.4 3.2 0.1 1.1 0.2 2.2 0.3 3.3 0.1 1.1 0.2 2.2 0.3 3.3 0.1 1.1 0.2 2.2 0.2 3.4 0.1 2.3 0.1 4.6 0.2 7 0 4.6-0.1 9.3-0.1 14.1 -0.1 9.6-0.4 19.6-1.1 30 -0.7 10.4-1.7 21.1-3.4 32 -1.6 10.9-3.8 22.1-6.8 33.4s-6.7 22.6-11.3 33.8C855 780.2 841.6 802 823.9 820.4 815.1 829.6 805.5 838.1 795.5 846.1s-20.6 15.4-31.6 22.1c-21.9 13.5-45.4 24.5-69.5 32.3 -24.1 7.8-48.9 12.4-73 13.6 -24.1 1.3-47.6-0.7-69.2-5.1 -21.7-4.3-41.6-11.1-59.4-18.5 -8.9-3.8-17.2-7.8-25-11.9 -2-1-3.8-2.1-5.7-3.1 -1.9-1-3.7-2-5.5-3.1 -3.6-2.1-7.1-4.1-10.4-6.2C432.8 858.1 421.8 850.1 413 843.1c-2.2-1.8-4.2-3.5-6.1-5.1 -1-0.8-1.9-1.6-2.8-2.3 -0.9-0.8-1.7-1.5-2.6-2.2 -1.7-1.4-3.2-2.8-4.5-4 -1.4-1.2-2.6-2.4-3.7-3.4 -2.2-2.1-3.8-3.6-4.9-4.7 -1.3-0.8-1.9-1.4-1.9-1.4s0.7 0.4 2 1.3c1.3 0.8 3.2 2.2 5.7 3.9 4.9 3.4 12.1 8.4 21.3 14.7 2.3 1.5 4.7 3.2 7.3 4.9 2.5 1.8 5.3 3.4 8 5.3 2.8 1.9 5.7 3.7 8.7 5.7 3 1.9 6.2 3.9 9.5 5.9 3.3 2.1 6.8 4 10.3 6 1.8 1 3.6 2 5.5 3 1.9 1 3.7 2 5.6 3 7.7 4 15.9 7.8 24.6 11.6 17.5 7.3 37 13.8 58.2 17.9 21.2 4.2 44.1 6.1 67.7 4.7C644.5 906.6 668.6 902 692.1 894.3c11.8-3.9 23.4-8.5 34.7-13.9 5.7-2.7 11.3-5.5 16.8-8.5s11-6.1 16.3-9.5C770.6 855.8 781 848.5 790.8 840.7S810 824.6 818.5 815.6c17-17.8 29.9-38.7 38.8-60.5 4.5-10.9 8.1-21.9 11-32.9 2.9-11 5-21.9 6.6-32.6 1.7-10.7 2.8-21.2 3.5-31.4 0.8-10.2 1.1-20.1 1.3-29.6 0.1-4.8 0.2-9.5 0.2-14 0-2.2-0.1-4.4-0.1-6.6 0-1.1-0.1-2.2-0.2-3.2 -0.1-1.1-0.2-2.1-0.2-3.2 -0.1-1.1-0.2-2.1-0.2-3.2 -0.1-1.1-0.2-2.1-0.4-3.1 -0.3-2.1-0.5-4.1-0.8-6.1s-0.6-4-0.9-6c-0.2-1-0.3-1.9-0.5-2.9 -0.2-1-0.4-1.9-0.5-2.9 -2.8-15.1-6.1-28.2-9.1-38.9s-5.6-19-7.4-24.7c-0.9-2.8-1.6-5-2.1-6.4 -0.5-1.4-0.7-2.2-0.7-2.2L862.5 503z" class="a"/><path d="M255.8 347c1.7 3.4 3.3 5.9 5.6 10.9 1.6 2.1 1.9 3.4 4.1 5.3 1.1 1.9 2.6 3.9 4.2 6.5 1.6 2.6 3.4 5.6 5.5 8.7 2.1 3.2 4.4 6.5 6.9 10.1 2.5 3.5 5.3 7.2 8.1 10.9 2.9 3.7 6 7.5 9.3 11.2 1.7 1.8 3.3 3.7 5.1 5.5l2.6 2.7 2.7 2.7c3.6 3.5 7.2 7 11 10.1 0.9 0.8 1.9 1.6 2.8 2.4 1 0.8 1.9 1.6 2.8 2.3 1.9 1.5 3.8 3 5.7 4.3 3.8 2.8 7.7 5.2 11.4 7.5 3.7 2.2 7.3 4.2 10.7 5.8 3.4 1.7 6.6 3.1 9.5 4.2 1.4 0.5 2.8 1.1 4 1.5 1.3 0.4 2.4 0.8 3.5 1.2 1 0.4 2 0.7 2.8 0.9s1.5 0.5 2.1 0.6c1.1 0.3 1.8 0.5 1.8 0.5s-0.6-0.1-1.8-0.4c-0.6-0.1-1.3-0.3-2.2-0.4 -0.9-0.2-1.8-0.4-2.9-0.7s-2.3-0.6-3.6-0.9c-1.3-0.4-2.7-0.8-4.2-1.3 -1.5-0.4-3-1-4.7-1.6 -1.7-0.5-3.4-1.3-5.1-2 -3.6-1.4-7.3-3.2-11.3-5.2 -3.9-2.1-7.9-4.4-11.9-7 -4-2.6-8.1-5.5-12.1-8.7 -4-3.1-7.8-6.5-11.6-10s-7.4-7.2-10.8-10.9c-3.4-3.7-6.7-7.5-9.7-11.2s-5.9-7.4-8.5-11 -5-7-7.1-10.2c-2.1-3.2-4-6.2-5.7-8.8 -1.6-2.7-3-5-4.2-6.9 -1.1-2-5.9-7.2-5.8-8.6C256.6 353.4 255.8 347 255.8 347z" class="a"/><path d="M364.2 310c0 0 0.7 0.3 1.9 1 0.6 0.3 1.4 0.8 2.2 1.3 0.9 0.5 1.8 1 2.8 1.6 0.5 0.3 1 0.6 1.6 0.9 0.6 0.3 1.2 0.7 1.8 1 1.2 0.8 2.5 1.5 3.9 2.4 2.7 1.7 5.6 3.6 8.9 5.6 1.7 1 3.4 2 5.2 3 1.9 0.9 3.7 1.9 5.7 2.9 3.9 1.9 8.3 3.7 12.6 5.5 4.4 1.8 8.9 3.6 13.4 5.6 4.5 1.9 9.1 4 13.6 6.1 1.1 0.5 2.3 1.1 3.4 1.6 1.1 0.5 2.3 1 3.4 1.6 2.3 1 4.6 2 6.8 3 4.5 2 9.1 3.8 13.5 5.6 1.1 0.4 2.2 0.8 3.3 1.3 1.1 0.4 2.2 0.8 3.3 1.2 1.1 0.4 2.1 0.8 3.2 1.2 1.1 0.4 2.1 0.7 3.1 1.1 2.1 0.8 4.1 1.4 6.1 2.1 2 0.7 3.9 1.3 5.8 1.9 1.9 0.6 3.7 1.1 5.4 1.6 1.7 0.5 3.4 0.9 5 1.4 3.1 0.8 5.9 1.5 8.3 2 2.4 0.6 4.2 0.9 5.5 1.2 1.4 0.1 2.1 0.3 2.1 0.3s-0.6 0.4-1.8 1 -3 1.5-5.3 2.4c-0.6 0.2-1.2 0.5-1.9 0.7 -0.7 0.3-1.3 0.5-2.1 0.7 -1.4 0.5-3 0.9-4.7 1.4 -1.7 0.4-3.5 0.8-5.5 1.2 -1.9 0.3-4 0.7-6.1 1 -2.1 0.2-4.4 0.5-6.7 0.6 -2.3 0.1-4.7 0.2-7.2 0.2 -1.2 0-2.5 0-3.8 0 -1.3-0.1-2.5-0.1-3.8-0.2 -2.6-0.1-5.2-0.5-7.9-0.7 -5.3-0.7-10.8-1.7-16.3-3.1 -5.5-1.4-11-3-16.3-5.1 -5.4-2-10.5-4.6-15.4-7.4 -4.9-2.9-9.5-6.1-13.6-9.5 -4.2-3.5-8-7-11.5-10.6 -3.5-3.5-6.6-7.1-9.4-10.4 -2.8-3.4-5.2-6.5-6.9-9.6 -0.5-0.8-0.9-1.5-1.3-2.3 -0.4-0.7-0.7-1.5-1-2.2 -0.6-1.4-1.2-2.7-1.6-4 -0.4-1.3-0.7-2.4-1-3.4 -0.2-1-0.3-1.8-0.4-2.5C364.2 310.8 364.2 310 364.2 310z" class="a"/><path d="M409 282.2c0 0 0-0.2 0-0.7 0-0.2 0-0.5 0-0.8 0-0.3 0.1-0.7 0.2-1.1 0.1-0.4 0.2-0.8 0.4-1.2 0.2-0.4 0.4-0.9 0.7-1.3 0.6-0.9 1.4-1.8 2.4-2.7 1-0.8 2.2-1.6 3.6-2.2 1.4-0.6 2.9-1.2 4.5-1.5 1.6-0.4 3.4-0.6 5.3-0.4 1.9 0.1 3.8 0.6 5.6 1.4 1.8 0.8 3.5 2.1 4.7 3.6 1.2 1.5 2.1 3.2 2.7 4.9 0.3 0.8 0.5 1.6 0.6 2.4 0.1 0.8 0.3 1.6 0.3 2.3 0 0.7 0.1 1.5 0.1 2.1 0 0.7 0 1.3 0 2 -0.1 1.2-0.2 2.4-0.6 3.3 -0.4 0.9-0.8 1.7-1.3 2.4 -0.5 0.6-0.9 1.1-1.3 1.4 -0.3 0.3-0.6 0.5-0.6 0.5s-0.2-0.2-0.4-0.6c-0.2-0.4-0.5-1-0.8-1.6 -0.3-0.7-0.6-1.5-0.8-2.3 -0.2-0.9-0.4-1.8-0.4-2.8 -0.1-0.5-0.1-1-0.2-1.5 -0.1-0.5-0.2-1-0.3-1.6 -0.1-0.5-0.3-1-0.4-1.6 -0.2-0.5-0.4-1-0.6-1.5 -0.5-1-1-1.8-1.7-2.5 -0.7-0.7-1.5-1.2-2.3-1.7 -0.9-0.4-1.9-0.7-3-0.9 -1.1-0.1-2.2-0.1-3.4 0 -1.1 0.1-2.2 0.4-3.3 0.7 -1 0.3-2 0.8-2.9 1.1 -0.9 0.4-1.7 0.7-2.5 1 -0.4 0.1-0.8 0.3-1.1 0.4 -0.4 0.1-0.7 0.3-1 0.4s-0.6 0.2-0.9 0.3 -0.5 0.2-0.7 0.3C409.2 282.1 409 282.2 409 282.2z" class="a"/><path d="M474 309.1c0 0 0-0.1-0.1-0.2 0-0.1-0.1-0.3-0.1-0.5 -0.1-0.5-0.2-1.1-0.1-2 0.1-0.4 0.2-0.9 0.3-1.4 0.2-0.5 0.4-1 0.7-1.5 0.3-0.5 0.7-1 1.1-1.5 0.5-0.5 0.9-1 1.5-1.4 0.5-0.5 1.1-1 1.8-1.4 0.6-0.4 1.3-0.8 2.1-1.2 1.5-0.7 3.1-1.3 4.9-1.6 3.5-0.6 7.6-0.2 11.2 1.6 1.8 0.9 3.4 2.1 4.7 3.6s2.3 3.2 2.9 5c0.6 1.8 1 3.5 1 5.1 0.1 1.6-0.1 3.1-0.4 4.5 -0.1 0.7-0.3 1.3-0.5 1.9s-0.3 1.1-0.6 1.6c-0.5 1-1 1.8-1.5 2.4 -1.1 1.2-2 1.7-2 1.7s-0.4-1-0.5-2.5c-0.1-0.8-0.2-1.6-0.1-2.6 0-0.5 0-1 0-1.5s0.1-1.1 0.1-1.6c0-1.1 0-2.3-0.2-3.5 0-0.3-0.1-0.6-0.1-0.9 0-0.3-0.1-0.6-0.2-0.9 -0.1-0.6-0.3-1.2-0.5-1.8 -0.4-1.1-1-2.2-1.8-3.2 -0.8-0.9-1.9-1.7-3-2.2 -1.2-0.6-2.5-0.9-3.8-1.1 -1.3-0.1-2.6-0.1-3.9 0.1 -1.3 0.2-2.5 0.5-3.6 1 -1.1 0.4-2.1 1-3 1.5 -0.5 0.3-0.8 0.6-1.2 0.9 -0.4 0.3-0.7 0.6-1.1 0.9 -0.3 0.3-0.7 0.5-1 0.8 -0.3 0.2-0.6 0.4-0.9 0.6 -0.6 0.3-1.2 0.8-1.6 1 -0.2 0.1-0.4 0.2-0.5 0.2C474.1 309 474 309.1 474 309.1z" class="a"/><path d="M286.4 199.9c-17.3 5.5-26.4 0.7-35.6-5.2 -8.9-5.6-8.7-3.6-8.6-0.9 0.1 2.7 3.7 13.1-0.1 13.8 -3.7 0.7-10.9-9-13.3-9.9 -2.4-0.9-6.8-1.4-6.3 3.1 0.5 4.5 2.3 8.3 0.9 8.7 -1.4 0.5-4.2-1.4-4.2-1.4s-8.5-10.1-11-8.3c-2.5 1.7-1.5 8.3-3.6 12.6 -2.1 4.3-10.4-11.5-13.6-10.4 -3.3 1.1-1.9 10.3-7.2 9.5 -5.3-0.9-5.7-9.8-10-10.3s0.4 6.6-5.2 6.9c-5.6 0.3-9.8-8.3-12.9-6.6 -3.1 1.7-3.1 4.9-5.4 7.2 -2.3 2.3-16 0.5-18.9 0.5 -3.3 0.1-6.1 3.8-5.6 5 0.5 1.3 8.9 4 11.2 6.4 2.3 2.4 1.2 4.3 4 5.3 2.8 1 2.6-3.7 4.9-3.7 2.3 0.1 5.3 5.6 8.6 6.8 3.3 1.2-2.8-0.5 3.3 1.2 6.1 1.7 6-2.7 11.8-1 5.8 1.7 6.1 8.6 9.6 9.8 3.5 1.2 3-5 7-3.7 4.1 1.3 7.7 8.7 12.3 9.4 4.6 0.6 3.2-8.1 8.4-6.3 5.2 1.8 5.6 12.8 9.1 14 3.5 1.2 4.4-7.7 9.1-5.7 4.7 2 3.3 7.1 6.4 12 1.2 1.8 6.4 7.6 10.9 0.6 1.4-2.1 1.3-4.6 8.4 0.5"/><path d="M600.6 448.7c6.5-6.7 4.3-0.6 8.2 8.7 3.9 9.3 6.2 6.6 7.2 4.2 1-2.4 2.1-12.9 5.7-12 3.6 0.9 5.9 12.3 7.6 14 1.7 1.8 5.4 4 6.8-0.2 1.4-4.2 1.3-8.2 2.8-8 1.4 0.2 3.1 2.9 3.1 2.9s3.3 12.2 6.2 11.7c2.9-0.5 4.7-6.7 8.3-9.6 3.6-2.9 4.4 14.2 7.7 14.5 3.3 0.3 5.9-8.3 10.2-5.4 4.3 2.9 1 10.8 4.6 13.1 3.6 2.2 2.4-5.9 7.4-3.9 5 2 5.2 11.2 8.6 10.9 3.4-0.3 4.7-3 7.7-4.1 3-1.1 14.2 6 16.8 7.1 2.9 1.3 6.9-0.9 7-2.2 0.1-1.3-6.1-7.1-7.2-10.1 -1.1-3.1 0.7-4.2-1.3-6.2 -2-2-3.8 2.2-5.8 1.2 -2-1-2.3-7-4.7-9.4 -2.4-2.3 2.3 1.6-2.4-2.3 -4.7-3.9-6.3 0-10.7-3.8 -4.4-3.8-1.8-10-4.5-12.4 -2.6-2.4-4.6 3.2-7.7 0.5 -3-2.7-3.2-10.7-7-13.1 -3.8-2.4-6.1 5.8-9.9 2.2 -3.8-3.7 0.4-13.4-2.3-15.8 -2.6-2.4-7 5-10.3 1.4 -3.3-3.6 1.2-10.4-2.9-14.1 -4.1-3.7-6.7-3.9-8.5-3.7 -1.9 0.2-10.2 5.3-14.4-2 0 0-8.9-25.7-11.5-19.3s-58.1 69.3-25.8 66.6L600.6 448.7z"/><path d="M249 263.5c-1.1 4-8.6 9.6-17.7 5.3 -9.1-4.4-9 1-8.2 3.6s5.3 10.3 2 12.2c-3.3 1.8-12.6-5.3-15.1-5.4 -2.5-0.1-6.7 0.7-5.1 5 1.7 4.2 4.3 7.3 3.1 8.2 -1.2 0.9-4.3 0-4.3 0s-10.6-7.1-12.4-4.6c-1.9 2.4 0.7 8.5-0.1 13.4 -0.8 4.8-12.7-7.9-15.4-5.7 -2.7 2.1 1 10.6-4.2 11.4 -5.2 0.8-7.9-7.6-12.1-6.8 -4.2 0.8 2.1 6.3-3.1 8.3 -5.1 2-11.3-5-13.8-2.3 -2.4 2.6-1.6 5.7-3.2 8.6 -1.6 3-14.8 5.5-17.5 6.5 -3 1.1-4.7 5.6-3.9 6.6 0.8 1.1 9.3 1.1 12.2 2.7 2.8 1.6 2.2 3.7 5.1 3.9 2.9 0.1 1.4-4.4 3.6-5.1 2.2-0.7 6.4 3.8 9.8 3.9 3.4 0.1-2.8 0.4 3.4 0.1 6.2-0.3 4.9-4.5 10.7-4.7 5.8-0.2 8 6.4 11.6 6.4s1.5-5.8 5.6-5.8c4.1 0 9.5 6 14 5.2 4.5-0.8 0.9-8.9 6.2-8.7 5.3 0.2 8.5 10.6 12.1 10.6 3.6 0 2.1-8.8 7-8.4 4.9 0.4 6 8.9 11.5 8.8s7.7-1.7 9-3.2c1.3-1.5 5.2-20 11.3-14.2"/><path d="M606.8 326.5l13.3 69.7 9.2-6.7c1.1-0.9 5.8-3.7 11.4-1.1 10.5 4.8 9.7 3.7 9.6 0.7 -0.1-3-4-14.5 0.1-15.4 4.1-0.9 12.1 9.8 14.8 10.7 2.7 1 7.5 1.4 7-3.6 -0.5-5.1-2.6-9.2-1-9.7 1.6-0.6 4.7 1.4 4.7 1.4s9.4 11 12.2 9c2.8-2 1.7-9.4 4-14.2 2.3-4.9 11.5 12.5 15.1 11.2 3.6-1.4 2.1-11.6 8-10.8 5.9 0.8 6.3 10.8 11.1 11.3 4.8 0.5-0.4-7.4 5.8-7.9 6.2-0.5 10.8 9 14.3 7 3.4-2 3.5-5.5 6.1-8.2 2.6-2.6 17.8-1 21-1.2 3.6-0.2 6.8-4.4 6.2-5.8 -0.5-1.4-9.8-4.2-12.4-6.9 -2.6-2.6-1.3-4.7-4.4-5.8 -3.1-1.1-2.9 4.2-5.5 4.2 -2.6 0-5.8-6.1-9.5-7.3 -3.7-1.2 3.1 0.5-3.7-1.2 -6.8-1.7-6.6 3.2-13 1.5 -6.4-1.7-6.8-9.5-10.7-10.6 -3.9-1.2-3.3 5.7-7.8 4.4 -4.5-1.3-8.5-9.5-13.7-10.1 -5.2-0.6-3.6 9.2-9.3 7.3 -5.7-1.9-6.1-14.2-10.1-15.3 -3.9-1.2-4.9 8.7-10.1 6.7 -5.2-2-3.9-11.5-9.9-13.2 -6.1-1.8-8.8-0.5-10.7 0.5 -21.7 10.8-23.1-3.3-29.2-8.5L606.8 326.5z"/><path d="M534.4 485.7c29.5 4.5 12.3 5.7 9 14.3 -3.3 8.6 1.3 8.5 4.2 7.6 3-0.8 12.5-6.8 15.5-3.8 3 3-3.5 11.8-3.1 14.1 0.4 2.3 2.5 6.2 7.2 4.5 4.8-1.7 7.9-4.3 9.2-3.2 1.4 1.1 1 4 1 4s-6.2 10-2.7 11.7c3.4 1.7 10.3-1 16.3-0.4 6.1 0.6-6.6 12-3.4 14.5 3.2 2.5 12.7-1.3 14.9 3.5 2.2 4.8-7.5 7.6-5.6 11.5 2 3.9 7.2-2.1 10.9 2.6 3.7 4.7-3.5 10.7 0.3 12.8 3.8 2.2 7.3 1.3 11.3 2.7 4 1.4 10.2 13.5 12 16 2 2.8 7.9 4.2 9 3.4 1.1-0.8-0.8-8.7 0.5-11.4 1.3-2.7 4-2.2 3.5-4.9 -0.5-2.7-5.7-1.2-7.1-3.2 -1.3-2 3.1-6.1 2.5-9.2 -0.7-3.1 1.1 2.6-0.7-3.1 -1.8-5.7-6.6-4.4-8.2-9.8 -1.6-5.4 6-7.6 5.2-11 -0.8-3.3-7.4-1.1-8.4-4.9 -1-3.8 5.2-9 3.1-13.1 -2.1-4.1-11.1-0.5-12.1-5.4 -1-4.9 11-8.3 10.2-11.6 -0.8-3.3-9.9-2-11.9-6.2 -6.8-13.9 9.4-19.8 8-25 -1.4-5.2-3.6-8.4-6-8.2 -21.2 1.3-13.9-8.2-18.2-14.5 0 0-7.1-22.8-9.6-27.8 -3.7-7.3-123.3 29.3-78 55.3L534.4 485.7z"/></svg>