<?xml version="1.0" encoding="utf-8"?>
<!-- Generator: Adobe Illustrator 16.0.0, SVG Export Plug-In . SVG Version: 6.00 Build 0)  -->
<svg version="1.2" baseProfile="tiny" xmlns="http://www.w3.org/2000/svg" xmlns:xlink="http://www.w3.org/1999/xlink" x="0px"
	 y="0px" width="600px" height="100px" viewBox="-250 0 600 100" xml:space="preserve">
<g id="Layer_2_1_">
</g>
<g id="Layer_1">
	<g>
		<g>
			<g>
				<path fill="#FFFFFF" d="M-203.76,55.81c0.31-2.76,3.06-5.37,4.59-7.53c2.19-3.09,3.86-6.43,4.56-10.17
					c0.79-4.24,2.75-7.97,5.65-11.15c1.94-2.12,4.91-4.69,7.93-4.88c0.64-0.04,0.64-1.04,0-1c-6.4,0.41-11.63,7.93-13.64,13.28
					c-0.86,2.29-1.05,4.75-1.87,7.07c-0.8,2.29-2.13,4.38-3.5,6.36c-1.68,2.43-4.38,4.97-4.73,8.04
					C-204.84,56.45-203.83,56.45-203.76,55.81L-203.76,55.81z"/>
			</g>
			<path fill="none" stroke="#FFFFFF" stroke-miterlimit="10" d="M-205.18,56.72c0,0,4.99-12.11,7.75-23
				c3.17-12.52,17.38-11.72,17.01-12.35c0,0-9.26,7.24-10.54,16.26C-192.22,46.52-205.18,56.72-205.18,56.72z"/>
			<polyline fill="none" stroke="#FFFFFF" stroke-width="2" stroke-miterlimit="10" points="-203.56,54.73 -204.1,55.59 
				-208.23,62.19 -205.51,60.36 -203.56,54.73 			"/>
		</g>
		<path fill="none" stroke="#FFFFFF" stroke-linecap="round" stroke-miterlimit="10" stroke-dasharray="4,4" d="M-210.88,65.67
			c0,0,1.99,2.94,4.33,4.18c5.2,2.74,7.55,5.32,7.55,5.32"/>
		<path display="none" fill="none" stroke="#FFFFFF" stroke-linecap="round" stroke-miterlimit="10" stroke-dasharray="3,3" d="
			M-219.59,58.27c0,0,3.52-0.4,5.36,2.09c0.65,0.88,1.55,2.09,1.55,2.09"/>
		
			<path display="none" fill="none" stroke="#FFFFFF" stroke-linecap="round" stroke-miterlimit="10" stroke-dasharray="0,2,3,2,0,2" d="
			M-208.88,60.67c0,0,1.99,2.94,4.33,4.18c5.2,2.74,7.55,5.32,7.55,5.32"/>
		<path display="none" fill="none" stroke="#FFFFFF" stroke-linecap="round" stroke-miterlimit="10" stroke-dasharray="3,3" d="
			M-216.59,55.27c0,0,3.52-0.4,5.36,2.09c0.65,0.88,1.55,2.09,1.55,2.09"/>
		<path display="none" fill="none" stroke="#FFFFFF" stroke-linecap="round" stroke-miterlimit="10" stroke-dasharray="6,4" d="
			M-205.52,59.23c0,0,1.74,2.54,3.78,3.6c4.54,2.36,6.6,4.59,6.6,4.59"/>
		<path display="none" fill="none" stroke="#FFFFFF" stroke-linecap="round" stroke-miterlimit="10" stroke-dasharray="6,4" d="
			M-213.13,52.85c0,0,3.08-0.34,4.69,1.8c0.57,0.76,1.36,1.8,1.36,1.8"/>
		<g>
			
				<line fill="none" stroke="#FFFFFF" stroke-linecap="round" stroke-miterlimit="10" x1="-198.19" y1="73.6" x2="-197.88" y2="78.92"/>
			
				<line fill="none" stroke="#FFFFFF" stroke-linecap="round" stroke-miterlimit="10" x1="-195.38" y1="76.1" x2="-200.69" y2="76.42"/>
		</g>
	</g>
	<g>
		<g>
			<g>
				<path fill="#FFFFFF" d="M-109.82,51.91c1.27-2.61,4.78-4.14,7.05-5.75c3.05-2.16,5.69-4.73,7.57-7.97
					c2.23-3.83,5.44-6.72,9.37-8.74c2.49-1.28,6.01-2.57,8.83-1.77c0.62,0.18,0.88-0.79,0.27-0.96c-6.34-1.81-14.09,3.89-17.7,8.49
					c-1.48,1.88-2.47,4.04-4.04,5.87c-1.52,1.77-3.4,3.23-5.3,4.57c-2.28,1.62-5.62,3.11-6.91,5.76
					C-110.96,51.98-110.1,52.49-109.82,51.91L-109.82,51.91z"/>
			</g>
			<path fill="none" stroke="#FFFFFF" stroke-miterlimit="10" d="M-111.42,52.2c0,0,8.77-9.73,15.02-19.06
				c7.19-10.73,20.31-5.21,20.17-5.92c0,0-11.16,3.71-15.39,11.78C-95.78,46.95-111.42,52.2-111.42,52.2z"/>
			<polyline fill="none" stroke="#FFFFFF" stroke-width="2" stroke-miterlimit="10" points="-109.23,50.87 -110.03,51.5 
				-116.13,56.33 -112.96,55.52 -109.23,50.87 			"/>
		</g>
		<path fill="none" stroke="#FFFFFF" stroke-linecap="round" stroke-miterlimit="10" stroke-dasharray="4,4" d="M-110.82,65.67
			c0,0,1.99,2.94,4.33,4.18c5.2,2.74,7.55,5.32,7.55,5.32"/>
		<path fill="none" stroke="#FFFFFF" stroke-linecap="round" stroke-miterlimit="10" stroke-dasharray="3,3" d="M-119.53,58.27
			c0,0,3.52-0.4,5.36,2.09c0.65,0.88,1.55,2.09,1.55,2.09"/>
		
			<path display="none" fill="none" stroke="#FFFFFF" stroke-linecap="round" stroke-miterlimit="10" stroke-dasharray="0,2,3,2,0,2" d="
			M-108.82,60.67c0,0,1.99,2.94,4.33,4.18c5.2,2.74,7.55,5.32,7.55,5.32"/>
		<path display="none" fill="none" stroke="#FFFFFF" stroke-linecap="round" stroke-miterlimit="10" stroke-dasharray="3,3" d="
			M-116.53,55.27c0,0,3.52-0.4,5.36,2.09c0.65,0.88,1.55,2.09,1.55,2.09"/>
		<path display="none" fill="none" stroke="#FFFFFF" stroke-linecap="round" stroke-miterlimit="10" stroke-dasharray="6,4" d="
			M-105.46,59.23c0,0,1.74,2.54,3.78,3.6c4.54,2.36,6.6,4.59,6.6,4.59"/>
		<path display="none" fill="none" stroke="#FFFFFF" stroke-linecap="round" stroke-miterlimit="10" stroke-dasharray="6,4" d="
			M-113.07,52.85c0,0,3.08-0.34,4.69,1.8c0.57,0.76,1.36,1.8,1.36,1.8"/>
		<g>
			
				<line fill="none" stroke="#FFFFFF" stroke-linecap="round" stroke-miterlimit="10" x1="-98.13" y1="73.6" x2="-97.82" y2="78.92"/>
			
				<line fill="none" stroke="#FFFFFF" stroke-linecap="round" stroke-miterlimit="10" x1="-95.32" y1="76.1" x2="-100.63" y2="76.42"/>
		</g>
	</g>
	<g>
		<g>
			<g>
				<path fill="#FFFFFF" d="M8.84,58.76c0.86-2.74,4.16-4.81,6.14-6.72c2.7-2.59,4.9-5.53,6.29-9.02c1.68-4.24,4.62-7.7,8.38-10.26
					c2.24-1.52,5.3-3.13,8.1-2.76c0.64,0.08,0.63-0.92,0-1c-2.65-0.35-5.41,1-7.63,2.28c-3.59,2.07-6.55,5.19-8.59,8.78
					c-1.18,2.08-1.84,4.36-3.12,6.4c-1.24,1.98-2.9,3.68-4.58,5.3c-2.04,1.96-5.07,3.9-5.96,6.74C7.68,59.11,8.65,59.38,8.84,58.76
					L8.84,58.76z"/>
			</g>
			<path fill="none" stroke="#FFFFFF" stroke-miterlimit="10" d="M7.29,59.34c0,0,7.23-10.92,12.04-21.07
				c5.52-11.68,19.31-8.16,19.07-8.84c0,0-10.48,5.32-13.47,13.92C21.97,51.83,7.29,59.34,7.29,59.34z"/>
			<polyline fill="none" stroke="#FFFFFF" stroke-width="2" stroke-miterlimit="10" points="9.26,57.7 8.56,58.45 3.24,64.13 
				6.26,62.85 9.26,57.7 			"/>
		</g>
		<path fill="none" stroke="#FFFFFF" stroke-linecap="round" stroke-miterlimit="10" stroke-dasharray="4,4" d="M-10.87,65.67
			c0,0,1.99,2.94,4.33,4.18c5.2,2.74,7.55,5.32,7.55,5.32"/>
		<path fill="none" stroke="#FFFFFF" stroke-linecap="round" stroke-miterlimit="10" stroke-dasharray="3,3" d="M-19.58,58.27
			c0,0,3.52-0.4,5.36,2.09c0.65,0.88,1.55,2.09,1.55,2.09"/>
		<path fill="none" stroke="#FFFFFF" stroke-linecap="round" stroke-miterlimit="10" stroke-dasharray="0,2,3,2,0,2" d="
			M-0.87,67.03C1.77,68.81,3,70.16,3,70.16"/>
		
			<path display="none" fill="none" stroke="#FFFFFF" stroke-linecap="round" stroke-miterlimit="10" stroke-dasharray="0,2,3,2,0,2" d="
			M-8.87,60.67c0,0,1.99,2.94,4.33,4.18c1.44,0.76,2.66,1.51,3.68,2.19"/>
		<path display="none" fill="none" stroke="#FFFFFF" stroke-linecap="round" stroke-miterlimit="10" stroke-dasharray="3,3" d="
			M-16.58,55.27c0,0,3.52-0.4,5.36,2.09c0.65,0.88,1.55,2.09,1.55,2.09"/>
		<path display="none" fill="none" stroke="#FFFFFF" stroke-linecap="round" stroke-miterlimit="10" stroke-dasharray="6,4" d="
			M-5.51,59.23c0,0,1.74,2.54,3.78,3.6c4.54,2.36,6.6,4.59,6.6,4.59"/>
		<path display="none" fill="none" stroke="#FFFFFF" stroke-linecap="round" stroke-miterlimit="10" stroke-dasharray="6,4" d="
			M-13.12,52.85c0,0,3.08-0.34,4.69,1.8c0.57,0.76,1.36,1.8,1.36,1.8"/>
		<g>
			<line fill="none" stroke="#FFFFFF" stroke-linecap="round" stroke-miterlimit="10" x1="1.82" y1="73.6" x2="2.13" y2="78.92"/>
			<line fill="none" stroke="#FFFFFF" stroke-linecap="round" stroke-miterlimit="10" x1="4.63" y1="76.1" x2="-0.68" y2="76.42"/>
		</g>
	</g>
	<g>
		<g>
			<g>
				<path fill="#FFFFFF" d="M102.49,55.17c1.49-2.37,5.06-3.52,7.4-4.81c3.36-1.85,6.32-4.17,8.61-7.27
					c2.71-3.68,6.41-6.29,10.7-7.81c2.55-0.91,5.92-1.69,8.53-0.62c0.6,0.24,0.86-0.72,0.27-0.96c-5.89-2.39-13.93,2.19-18.01,6.11
					c-1.74,1.68-2.97,3.78-4.69,5.49c-1.72,1.71-3.81,3.02-5.91,4.21c-2.55,1.44-6.12,2.57-7.76,5.17
					C101.28,55.21,102.15,55.71,102.49,55.17L102.49,55.17z"/>
			</g>
			<path fill="none" stroke="#FFFFFF" stroke-miterlimit="10" d="M100.84,55.33c0,0,9.75-8.74,16.97-17.35
				c8.29-9.9,20.75-3.01,20.69-3.74c0,0-11.49,2.5-16.56,10.07C116.95,51.77,100.84,55.33,100.84,55.33z"/>
			<polyline fill="none" stroke="#FFFFFF" stroke-width="2" stroke-miterlimit="10" points="103.16,54.24 102.3,54.79 95.72,58.94 
				98.96,58.47 103.16,54.24 			"/>
		</g>
		<path fill="none" stroke="#FFFFFF" stroke-linecap="round" stroke-miterlimit="10" stroke-dasharray="4,4" d="M89.11,65.67
			c0,0,1.99,2.94,4.33,4.18c5.2,2.74,7.55,5.32,7.55,5.32"/>
		<path fill="none" stroke="#FFFFFF" stroke-linecap="round" stroke-miterlimit="10" stroke-dasharray="3,3" d="M80.4,58.27
			c0,0,3.52-0.4,5.36,2.09c0.65,0.88,1.55,2.09,1.55,2.09"/>
		<path fill="none" stroke="#FFFFFF" stroke-linecap="round" stroke-miterlimit="10" stroke-dasharray="0,2,3,2,0,2" d="
			M99.11,67.03c2.64,1.78,3.87,3.13,3.87,3.13"/>
		<path fill="none" stroke="#FFFFFF" stroke-linecap="round" stroke-miterlimit="10" stroke-dasharray="0,2,3,2,0,2" d="
			M91.11,60.67c0,0,1.99,2.94,4.33,4.18c1.44,0.76,2.66,1.51,3.68,2.19"/>
		<path display="none" fill="none" stroke="#FFFFFF" stroke-linecap="round" stroke-miterlimit="10" stroke-dasharray="3,3" d="
			M83.4,55.27c0,0,3.52-0.4,5.36,2.09c0.65,0.88,1.55,2.09,1.55,2.09"/>
		<path display="none" fill="none" stroke="#FFFFFF" stroke-linecap="round" stroke-miterlimit="10" stroke-dasharray="6,4" d="
			M94.47,59.23c0,0,1.74,2.54,3.78,3.6c4.54,2.36,6.6,4.59,6.6,4.59"/>
		<path display="none" fill="none" stroke="#FFFFFF" stroke-linecap="round" stroke-miterlimit="10" stroke-dasharray="6,4" d="
			M86.86,52.85c0,0,3.08-0.34,4.69,1.8c0.57,0.76,1.36,1.8,1.36,1.8"/>
		<g>
			
				<line fill="none" stroke="#FFFFFF" stroke-linecap="round" stroke-miterlimit="10" x1="101.8" y1="73.6" x2="102.11" y2="78.92"/>
			<line fill="none" stroke="#FFFFFF" stroke-linecap="round" stroke-miterlimit="10" x1="104.61" y1="76.1" x2="99.3" y2="76.42"/>
		</g>
	</g>
	<g>
		<g>
			<g>
				<path fill="#FFFFFF" d="M192.93,47.14c0.89-2.54,3.98-4.4,5.92-6.1c2.92-2.58,5.41-5.51,6.98-9.1c1.76-4.05,4.61-7.32,8.27-9.78
					c2.31-1.55,5.67-3.29,8.56-2.82c0.63,0.1,0.9-0.86,0.27-0.96c-6.35-1.05-13.17,5.13-16.34,9.93c-1.31,1.99-2.04,4.29-3.31,6.31
					c-1.37,2.18-3.24,4.01-5.14,5.72c-2.11,1.9-5.19,3.73-6.17,6.54C191.75,47.49,192.72,47.75,192.93,47.14L192.93,47.14z"/>
			</g>
			<path fill="none" stroke="#FFFFFF" stroke-miterlimit="10" d="M191.35,47.68c0,0,7.59-10.67,12.72-20.67
				c5.91-11.49,19.57-7.52,19.35-8.21c0,0-10.65,4.97-13.93,13.47C206.28,40.66,191.35,47.68,191.35,47.68z"/>
			<polyline fill="none" stroke="#FFFFFF" stroke-width="2" stroke-miterlimit="10" points="193.38,46.11 192.65,46.83 
				187.16,52.33 190.21,51.16 193.38,46.11 			"/>
		</g>
		<path fill="none" stroke="#FFFFFF" stroke-linecap="round" stroke-miterlimit="10" stroke-dasharray="4,4" d="M189.11,65.67
			c0,0,1.99,2.94,4.33,4.18c5.2,2.74,7.55,5.32,7.55,5.32"/>
		<path fill="none" stroke="#FFFFFF" stroke-linecap="round" stroke-miterlimit="10" stroke-dasharray="3,3" d="M180.4,58.27
			c0,0,3.52-0.4,5.36,2.09c0.65,0.88,1.55,2.09,1.55,2.09"/>
		<path fill="none" stroke="#FFFFFF" stroke-linecap="round" stroke-miterlimit="10" stroke-dasharray="0,2,3,2,0,2" d="
			M199.11,67.03c2.64,1.78,3.87,3.13,3.87,3.13"/>
		<path fill="none" stroke="#FFFFFF" stroke-linecap="round" stroke-miterlimit="10" stroke-dasharray="0,2,3,2,0,2" d="
			M191.11,60.67c0,0,1.99,2.94,4.33,4.18c1.44,0.76,2.66,1.51,3.68,2.19"/>
		<path fill="none" stroke="#FFFFFF" stroke-linecap="round" stroke-miterlimit="10" stroke-dasharray="3,3" d="M183.4,55.27
			c0,0,3.52-0.4,5.36,2.09c0.65,0.88,1.55,2.09,1.55,2.09"/>
		<path display="none" fill="none" stroke="#FFFFFF" stroke-linecap="round" stroke-miterlimit="10" stroke-dasharray="6,4" d="
			M194.47,59.23c0,0,1.74,2.54,3.78,3.6c4.54,2.36,6.6,4.59,6.6,4.59"/>
		<path display="none" fill="none" stroke="#FFFFFF" stroke-linecap="round" stroke-miterlimit="10" stroke-dasharray="6,4" d="
			M186.86,52.85c0,0,3.08-0.34,4.69,1.8c0.57,0.76,1.36,1.8,1.36,1.8"/>
		<g>
			
				<line fill="none" stroke="#FFFFFF" stroke-linecap="round" stroke-miterlimit="10" x1="201.8" y1="73.6" x2="202.11" y2="78.92"/>
			
				<line fill="none" stroke="#FFFFFF" stroke-linecap="round" stroke-miterlimit="10" x1="204.61" y1="76.1" x2="199.3" y2="76.42"/>
		</g>
	</g>
	<g>
		<g>
			<g>
				<path fill="#FFFFFF" d="M303.4,49.6c0.59-2.66,3.38-4.83,5.12-6.77c2.46-2.75,4.49-5.76,5.69-9.27
					c1.52-4.44,3.49-8.03,7.05-11.18c2.17-1.92,5.39-4.1,8.43-3.97c0.64,0.03,0.64-0.97,0-1c-6.56-0.28-12.75,7.03-15.2,12.32
					c-1.01,2.19-1.48,4.55-2.59,6.71c-1.07,2.08-2.56,3.93-4.09,5.68c-1.85,2.11-4.74,4.33-5.38,7.22
					C302.3,49.96,303.26,50.23,303.4,49.6L303.4,49.6z"/>
			</g>
			<path fill="none" stroke="#FFFFFF" stroke-miterlimit="10" d="M301.91,50.27c0,0,6.26-11.5,10.17-22.03
				c4.5-12.11,18.54-9.79,18.24-10.46c0,0-9.99,6.2-12.22,15.03C315.89,41.52,301.91,50.27,301.91,50.27z"/>
			<polyline fill="none" stroke="#FFFFFF" stroke-width="2" stroke-miterlimit="10" points="303.73,48.46 303.1,49.27 298.3,55.38 
				301.19,53.85 303.73,48.46 			"/>
		</g>
		<path fill="none" stroke="#FFFFFF" stroke-linecap="round" stroke-miterlimit="10" stroke-dasharray="4,4" d="M289.12,65.67
			c0,0,1.99,2.94,4.33,4.18c5.2,2.74,7.55,5.32,7.55,5.32"/>
		<path fill="none" stroke="#FFFFFF" stroke-linecap="round" stroke-miterlimit="10" stroke-dasharray="3,3" d="M280.41,58.28
			c0,0,3.52-0.4,5.36,2.09c0.65,0.88,1.55,2.09,1.55,2.09"/>
		<path fill="none" stroke="#FFFFFF" stroke-linecap="round" stroke-miterlimit="10" stroke-dasharray="0,2,3,2,0,2" d="
			M299.12,67.04c2.64,1.78,3.87,3.13,3.87,3.13"/>
		<path fill="none" stroke="#FFFFFF" stroke-linecap="round" stroke-miterlimit="10" stroke-dasharray="0,2,3,2,0,2" d="
			M291.12,60.67c0,0,1.99,2.94,4.33,4.18c1.44,0.76,2.66,1.51,3.68,2.19"/>
		<path fill="none" stroke="#FFFFFF" stroke-linecap="round" stroke-miterlimit="10" stroke-dasharray="3,3" d="M283.41,55.28
			c0,0,3.52-0.4,5.36,2.09c0.65,0.88,1.55,2.09,1.55,2.09"/>
		<path fill="none" stroke="#FFFFFF" stroke-linecap="round" stroke-miterlimit="10" stroke-dasharray="6,4" d="M294.48,59.24
			c0,0,1.74,2.54,3.78,3.6c4.54,2.36,6.6,4.59,6.6,4.59"/>
		<g>
			
				<line fill="none" stroke="#FFFFFF" stroke-linecap="round" stroke-miterlimit="10" x1="301.81" y1="73.61" x2="302.12" y2="78.92"/>
			
				<line fill="none" stroke="#FFFFFF" stroke-linecap="round" stroke-miterlimit="10" x1="304.62" y1="76.11" x2="299.31" y2="76.42"/>
		</g>
	</g>
</g>
</svg>
