<?xml version="1.0" encoding="utf-8"?>
<!-- Generator: Adobe Illustrator 16.0.0, SVG Export Plug-In . SVG Version: 6.00 Build 0)  -->
<!DOCTYPE svg PUBLIC "-//W3C//DTD SVG 1.1//EN" "http://www.w3.org/Graphics/SVG/1.1/DTD/svg11.dtd">
<svg version="1.1" id="Layer_1" xmlns="http://www.w3.org/2000/svg" xmlns:xlink="http://www.w3.org/1999/xlink" x="0px" y="0px"
	 width="35px" height="35px" viewBox="0 0 35 35" enable-background="new 0 0 35 35" xml:space="preserve">
<path fill="#48A0F0" d="M26.4,8.6c-3.301,5-6.7,10-10,15c-1.3,1.9,1.8,3.7,3.1,1.801c3.3-5,6.7-10,10-15C30.8,8.5,27.7,6.7,26.4,8.6
	L26.4,8.6z"/>
<path fill="#48A0F0" d="M6.4,10.4c3.3,5,6.7,10,10,15c1.3,1.899,4.4,0.1,3.1-1.801c-3.3-5-6.7-10-10-15C8.3,6.7,5.2,8.5,6.4,10.4
	L6.4,10.4z"/>
</svg>
